<svg width="40" height="40" viewBox="0 0 40 40" fill="none" xmlns="http://www.w3.org/2000/svg">
<path fill-rule="evenodd" clip-rule="evenodd" d="M20 40C31.0457 40 40 31.0457 40 20C40 8.9543 31.0457 0 20 0C8.9543 0 0 8.9543 0 20C0 31.0457 8.9543 40 20 40Z" fill="#E8EFFF"/>
<g clip-path="url(#clip0_1318_10899)">
<path d="M19.9982 20.0004C21.6352 20.0004 22.9612 18.6745 22.9612 17.0374C22.9612 15.4004 21.6352 14.0745 19.9982 14.0745C18.3612 14.0745 17.0352 15.4004 17.0352 17.0374C17.0352 18.6745 18.3612 20.0004 19.9982 20.0004ZM19.9982 21.4819C18.0204 21.4819 14.0723 22.4745 14.0723 24.4448V25.9263H25.9241V24.4448C25.9241 22.4745 21.976 21.4819 19.9982 21.4819Z" fill="#333333"/>
</g>
<defs>
<clipPath id="clip0_1318_10899">
<rect width="17.7778" height="17.7778" fill="white" transform="translate(11.1113 11.1111)"/>
</clipPath>
</defs>
</svg>
