<svg width="37" height="37" viewBox="0 0 37 37" fill="none" xmlns="http://www.w3.org/2000/svg">
<path d="M14.5542 5.84978C11.4222 6.92258 8.75102 9.26978 7.26782 12.229C6.74942 13.2514 6.37502 14.3386 6.15182 15.4618C5.58302 18.2554 5.97902 21.229 7.26782 23.7778C8.10302 25.441 9.30542 26.917 10.7598 28.069C12.135 29.1634 13.7334 29.9698 15.4326 30.4234C17.571 30.9994 19.8534 30.985 22.0134 30.4954C23.9646 30.049 25.8078 29.113 27.2766 27.7594C28.8318 26.3266 29.9406 24.4474 30.531 22.4242C31.1718 20.2138 31.2582 17.8594 30.855 15.5986C26.823 15.5986 22.791 15.5986 18.7518 15.5986C18.7518 17.269 18.7518 18.9466 18.7518 20.617C21.0846 20.617 23.4246 20.617 25.7574 20.617C25.4838 22.2226 24.5334 23.6842 23.1798 24.5914C22.3302 25.1602 21.3582 25.5346 20.3502 25.7074C19.335 25.8802 18.291 25.9018 17.283 25.7002C16.2534 25.4986 15.2742 25.0666 14.4174 24.4618C13.0494 23.5042 12.0054 22.093 11.4726 20.5162C10.9254 18.9106 10.9182 17.1178 11.4726 15.5122C11.8542 14.3818 12.495 13.3306 13.3374 12.481C14.3742 11.4154 15.7206 10.6594 17.175 10.3498C18.4206 10.0834 19.731 10.1338 20.9478 10.501C21.9846 10.8178 22.935 11.3794 23.7198 12.1282C24.5118 11.3434 25.2966 10.5514 26.0886 9.76658C26.499 9.34178 26.9382 8.93858 27.3414 8.49938C26.1462 7.39058 24.735 6.49778 23.2014 5.93618C20.451 4.90658 17.3334 4.88498 14.5542 5.84978Z" fill="white"/>
<path d="M14.5526 5.85061C17.3318 4.88581 20.4494 4.90741 23.2142 5.92981C24.7478 6.49141 26.1518 7.38421 27.3542 8.49301C26.951 8.92501 26.519 9.33541 26.1014 9.76021C25.3094 10.545 24.5246 11.337 23.7326 12.1218C22.9478 11.373 21.9974 10.8042 20.9606 10.4946C19.7438 10.1274 18.4334 10.077 17.1878 10.3434C15.7334 10.653 14.387 11.4162 13.3502 12.4746C12.5078 13.3242 11.867 14.3754 11.4854 15.5058C10.0814 14.4186 8.67744 13.3242 7.27344 12.237C8.74944 9.27061 11.4206 6.92341 14.5526 5.85061Z" fill="#E94435"/>
<path d="M6.15182 15.4613C6.37502 14.3381 6.75662 13.2509 7.26782 12.2285C8.67182 13.3157 10.0758 14.4101 11.4798 15.4973C10.9254 17.1029 10.9326 18.8957 11.4798 20.5013C10.0758 21.5885 8.67182 22.6829 7.26782 23.7701C5.97902 21.2357 5.58302 18.2549 6.15182 15.4613Z" fill="#F8BB15"/>
<path d="M18.759 15.5918C22.791 15.5918 26.823 15.5918 30.8622 15.5918C31.2654 17.8526 31.179 20.207 30.5382 22.4174C29.9478 24.4406 28.839 26.327 27.2838 27.7526C25.923 26.6942 24.555 25.6358 23.2014 24.5774C24.555 23.6774 25.5054 22.2086 25.779 20.603C23.4462 20.603 21.1062 20.603 18.7734 20.603C18.7518 18.9398 18.759 17.2694 18.759 15.5918Z" fill="#547DBE"/>
<path d="M7.26953 23.7786C8.67353 22.6914 10.0775 21.597 11.4815 20.5098C12.0143 22.0938 13.0583 23.4978 14.4263 24.4554C15.2831 25.0602 16.2623 25.485 17.2919 25.6938C18.2999 25.8954 19.3511 25.8738 20.3591 25.701C21.3671 25.5282 22.3391 25.1538 23.1887 24.585C24.5495 25.6434 25.9175 26.7018 27.2711 27.7602C25.8023 29.121 23.9591 30.0498 22.0079 30.4962C19.8551 30.9858 17.5727 31.0002 15.4271 30.4242C13.7279 29.9706 12.1295 29.1642 10.7543 28.0698C9.30713 26.9106 8.10473 25.4346 7.26953 23.7786Z" fill="#34A751"/>
</svg>
