<svg width="240" height="240" viewBox="0 0 240 240" fill="none" xmlns="http://www.w3.org/2000/svg">
<path d="M121.598 216C68.6641 216 25.5996 172.936 25.5996 120.001C25.5996 67.0672 68.6641 24 121.598 24C174.532 24 217.6 67.0645 217.6 119.999C217.6 172.933 174.532 216 121.598 216ZM121.598 33.1664C73.7206 33.1664 34.766 72.121 34.766 119.999C34.766 167.876 73.7179 206.831 121.598 206.831C169.479 206.831 208.431 167.879 208.431 119.999C208.431 72.1183 169.479 33.1664 121.598 33.1664Z" fill="#00CC60"/>
<path d="M102.981 167.371L63.1523 127.542L77.4822 113.212L102.981 138.711L167.39 74.3032L181.719 88.6331L102.981 167.371Z" fill="#00CC60"/>
</svg>
