<svg width="18" height="18" viewBox="0 0 18 18" fill="none" xmlns="http://www.w3.org/2000/svg">
<path d="M10.4119 8.99994L16.7119 2.70994C16.9002 2.52164 17.006 2.26624 17.006 1.99994C17.006 1.73364 16.9002 1.47825 16.7119 1.28994C16.5236 1.10164 16.2682 0.99585 16.0019 0.99585C15.7356 0.99585 15.4802 1.10164 15.2919 1.28994L9.00189 7.58994L2.71189 1.28994C2.52359 1.10164 2.26819 0.99585 2.00189 0.99585C1.73559 0.99585 1.4802 1.10164 1.29189 1.28994C1.10359 1.47825 0.997801 1.73364 0.997801 1.99994C0.997801 2.26624 1.10359 2.52164 1.29189 2.70994L7.59189 8.99994L1.29189 15.2899C1.19816 15.3829 1.12377 15.4935 1.073 15.6154C1.02223 15.7372 0.996094 15.8679 0.996094 15.9999C0.996094 16.132 1.02223 16.2627 1.073 16.3845C1.12377 16.5064 1.19816 16.617 1.29189 16.7099C1.38486 16.8037 1.49546 16.8781 1.61732 16.9288C1.73917 16.9796 1.86988 17.0057 2.00189 17.0057C2.1339 17.0057 2.26461 16.9796 2.38647 16.9288C2.50833 16.8781 2.61893 16.8037 2.71189 16.7099L9.00189 10.4099L15.2919 16.7099C15.3849 16.8037 15.4955 16.8781 15.6173 16.9288C15.7392 16.9796 15.8699 17.0057 16.0019 17.0057C16.1339 17.0057 16.2646 16.9796 16.3865 16.9288C16.5083 16.8781 16.6189 16.8037 16.7119 16.7099C16.8056 16.617 16.88 16.5064 16.9308 16.3845C16.9816 16.2627 17.0077 16.132 17.0077 15.9999C17.0077 15.8679 16.9816 15.7372 16.9308 15.6154C16.88 15.4935 16.8056 15.3829 16.7119 15.2899L10.4119 8.99994Z" fill="#4F4F4F"/>
</svg>
